<?xml version="1.0" encoding="utf-8"?>

<!DOCTYPE svg PUBLIC "-//W3C//DTD SVG 1.1//EN" "http://www.w3.org/Graphics/SVG/1.1/DTD/svg11.dtd">
<svg version="1.1" id="Layer_1" xmlns="http://www.w3.org/2000/svg" xmlns:xlink="http://www.w3.org/1999/xlink" x="0px" y="0px"
	 viewBox="0 0 1264.26 1758.165" enable-background="new 0 0 1264.26 1758.165" xml:space="preserve">
<g>
	<path opacity="0.4" fill="#64450F" stroke="#64450F" stroke-width="0.5" enable-background="new    " d="M702.903,79.083h6.481
		c-0.601,0.25-1.16,0.619-1.81,0.675c-1.366-0.354-2.776-0.302-4.164-0.384L702.903,79.083z"/>
	<path fill="#FBBA90" stroke="#FBBA90" stroke-width="0.5" d="M418.425,358.02c5.492,19.301,11.914,38.39,20.391,56.606
		c3.063,6.615,6.384,13.115,10.011,19.44c11.824,20.656,27.13,39.819,46.95,53.304c11.813,8.112,25.156,14.052,39.148,17.178
		c-2.992-7.231-5.992-14.466-8.548-21.865c-3.324-9.6-6.164-19.387-8.078-29.372c-1.295-6.97-2.295-14.029-2.339-21.13
		c0.466,0.414,0.94,0.84,1.395,1.28c17.484,17.537,36.196,33.883,56.192,48.506c19.178,14.003,39.539,26.447,61.013,36.614
		c23.943,11.436,49.256,20.07,75.269,25.353c-11.604-9.604-22.633-20.04-31.79-32.044c-10.656-13.91-18.787-30.245-20.719-47.83
		c-0.59-5.373-0.649-10.806-0.104-16.182c4.69,4.709,9.25,9.548,14.037,14.16c21.94,21.548,45.633,41.554,71.994,57.513
		c20.839,12.574,43.577,22.551,67.673,26.719c12.055,2.078,24.391,2.657,36.569,1.418c-6.489-13.652-13.1-27.245-19.604-40.89
		c-1.948-4.086-3.992-8.13-5.839-12.264c7.044,3.407,13.865,7.261,20.757,10.966c19.611,10.955,38.901,22.66,56.61,36.532
		c9.466,7.477,18.533,15.578,26.145,24.969c6.406,7.929,11.802,17.037,13.585,27.197c9.656-5.153,18.82-11.272,27.081-18.469
		c-0.108,1.388-0.257,2.776-0.403,4.168c6.865,4.377,11.88,11.339,14.414,19.029c4.332,12.955,1.992,28.264-7.037,38.7
		c-4.489,5.239-10.742,9.022-17.581,10.153c-1.743,9.018-3.638,18.007-5.645,26.969c-0.347,1.608-1.298,2.989-2,4.455
		c-17.462,33.771-39.778,65.289-67.576,91.351c-20.522,19.316-43.987,35.506-69.382,47.737
		c-14.167,6.891-28.954,12.462-44.013,17.059c-0.881-2.597-0.978-5.373-1.459-8.052c-14.679,1.41-29.327,3.22-43.998,4.709
		c-13.667-1.776-27.32-3.746-41.028-5.171c-0.481,10.802-2.433,21.786-7.556,31.417c-3.22,6.048-7.839,11.38-13.537,15.212
		c-8.429,5.753-18.697,8.119-28.764,8.675c-0.134-0.179-0.403-0.541-0.537-0.72c-5.936,0.078-11.914-0.325-17.693-1.724
		c-7.074-1.664-13.846-4.884-19.298-9.727c-8-7.026-12.761-17.018-15.29-27.208c-1.153-4.511-1.862-9.119-2.384-13.738
		c-13.13,2.276-26.223,4.754-39.297,7.336c-0.433,0.063-0.862,0.119-1.287,0.168c-0.492-0.052-0.963-0.078-1.44-0.119
		c-40.095-7.824-79.381-21.063-114.925-41.383c-22.566-12.899-43.517-28.674-61.93-47.036c1.313-0.321,2.668-0.276,4.007-0.295
		c1.007,0.071,1.575-1.06,2.563-1.067c1.526-0.067,3.06-0.261,4.589-0.19c1.724,0.571,2.56,2.362,2.444,4.101
		c0.194,0.108,0.586,0.328,0.784,0.437c-1.06,0.873-2.351,1.358-3.548,1.996c2.186,0.914,4.72-0.358,6.813,0.877
		c0.116-0.504,0.231-1.011,0.358-1.496c1.116-0.123,2.235-0.213,3.358-0.269c0.343-0.437,0.683-0.866,1.026-1.291
		c3.795-0.257,7.6-0.019,11.399-0.101c13.701,0.03,27.402-0.026,41.099,0.011c1.034-0.104,1.638,0.832,2.298,1.459
		c0.951,0.019,1.903,0.03,2.862,0.041c0.276,0.354,0.556,0.713,0.843,1.086c2.119,0.045,4.25,0.104,6.369-0.116
		c-1.228-0.798-2.597-1.351-3.772-2.22c0.228-0.112,0.683-0.34,0.91-0.452c-0.09-0.772-0.228-1.548-0.164-2.317
		c0.866-0.619,1.701-1.28,2.575-1.881c1.616,0.097,3.227,0.235,4.851,0.287c0.802-0.041,1.366,0.578,1.951,1.041
		c0.937,0.052,1.888,0.026,2.821,0.209c0.452,0.384,0.817,0.866,1.269,1.269c0.925,0.224,1.892,0.056,2.839,0.037
		c-0.131-1.552-0.134-3.354,1.332-4.306c-0.399-0.862-0.713-1.754-0.944-2.664c1.235-0.101,2.478-0.123,3.72-0.034
		c0.504,0.478,0.922,1.123,1.597,1.388c1.06,0.19,2.149,0.056,3.224,0.019c0.037-0.731,0.078-1.455,0.123-2.172
		c0.31-0.205,0.623-0.399,0.94-0.586c-0.451-0.866-0.81-1.769-1.052-2.701c1.235-0.101,2.477-0.138,3.724-0.086
		c0.414,0.455,0.728,1.075,1.31,1.358c1.034,0.287,2.123,0.127,3.183,0.101c0.037-1.336,0.082-2.668,0.138-3.996
		c1.321-0.056,2.645-0.097,3.974-0.123c0.048-1.339,0.086-2.672,0.119-4c1.328-0.037,2.66-0.071,3.996-0.104
		c0.034-1.459,0.067-2.914,0.108-4.365c1.328-0.045,2.657-0.09,3.989-0.131c0.272-3.175-0.041-6.354,0.082-9.53
		c0.399,0.418,0.784,0.869,1.254,1.239c1.004,0.351,2.101,0.101,3.142,0.082c0.164-3.186-0.097-6.377,0.164-9.556
		c0.489,0.672,0.981,1.354,1.575,1.951c4.966,4.739,9.88,9.544,15.126,13.988c19.175,16.525,41.17,30.103,65.315,37.995
		c14.328,4.724,29.324,7.41,44.401,7.992c24.895,1.015,49.77-3.709,73.206-11.929c19.078-6.679,37.312-15.6,54.718-25.842
		c1.791-1.078,3.63-2.09,5.354-3.284c-23.574,6.698-47.707,11.537-72.12,13.776c-29.827,2.783-60.016,1.813-89.575-3.06
		c-33.182-5.414-65.486-15.72-96.011-29.749c0.653-0.205,1.302-0.429,1.963-0.638c0.157-2.784-0.022-5.571,0.063-8.354
		c-0.015-0.981,0.09-1.981-0.146-2.933c-0.541-1.123-1.239-2.168-1.668-3.339c1.134-1.16,2.612-1.884,3.78-3.004
		c0.69,0.164,1.384,0.343,2.078,0.526c0.146-2.657-0.246-5.343,0.366-7.955c-0.552-2.235-0.254-4.53-0.336-6.798
		c0.146-1.067-1.231-1.328-1.425-2.239c-0.735-3.701-0.298-7.485-0.444-11.224c0.104-4.705-0.28-9.432,0.47-14.096
		c0.5-0.597,1.332-1.067,1.373-1.918c0.142-1.869-0.004-3.742,0.015-5.608c-0.097-2.683,0.366-5.373-0.086-8.037
		c-2.228-0.575-4.388-1.709-5.727-3.627c-0.31-1.22-0.328-2.698,0.582-3.675c0.47-0.679,1.228-1.287,1.145-2.194
		c0.03-2.388-0.022-4.776-0.019-7.16c0.929-0.34,1.839-0.739,2.72-1.19c5.395-2.839,9.384-8.115,10.787-14.033
		c1.687-6.802-0.007-14.373-4.567-19.716c-3.813-4.574-9.656-7.44-15.634-7.406c-5.832-0.075-11.552,2.608-15.387,6.97
		c-1.604,1.81-2.899,3.892-3.824,6.127c-0.425,0.007-0.843,0.022-1.257,0.045c-0.216-0.373-0.433-0.742-0.638-1.101
		c-0.399-0.142-0.798-0.276-1.19-0.403c-0.216-1.407-0.209-2.832-0.123-4.246c-0.843-0.026-1.683-0.045-2.519-0.052
		c-0.567,0.608-1.131,1.213-1.698,1.813c-0.097-0.224-0.287-0.672-0.381-0.896c-0.627,0.254-1.246,0.511-1.869,0.772
		c-0.619-0.776-1.295-1.496-2.03-2.153c-0.06-1.205-0.093-2.41-0.123-3.608c-1.041-0.034-2.086-0.019-3.123,0.045
		c-0.343,0.444-0.683,0.895-1.022,1.351c-2.444,0.157-4.892,0.116-7.336,0.03c0.06-0.746,0.123-1.489,0.19-2.228
		c-0.336-0.265-0.668-0.526-0.992-0.772c0.022-0.463,0.045-0.922,0.075-1.373c0.575-0.325,1.153-0.642,1.742-0.944
		c-0.963-0.205-1.72-0.806-2.515-1.325c-1.466-0.298-3.101-0.138-4.138,1.045c-0.948,0.045-1.895,0.082-2.839,0.119
		c-0.425,0.466-0.843,0.937-1.257,1.41c-4.474,0.045-8.947-0.026-13.421,0.022c-1.485,0.216-2.31-1.407-3.713-1.463
		c-3.112-0.313-6.231,0.052-9.343-0.049c-4.933-0.075-9.873,0.172-14.802-0.134c-0.097,0.511-0.19,1.03-0.276,1.56
		c-3.873,0.295-7.791-0.25-11.63,0.239c-3.071,2.63-5.679,5.783-8.679,8.492c-2.022,0.847-4.448-0.272-6.462,0.601
		c-9.406,9.235-18.645,18.656-28.003,27.947c-5.921,5.895-11.813,11.82-17.719,17.723c-2.522,2.563-5.153,5.015-7.578,7.664
		c0.321,0.317,0.642,0.646,0.966,0.978c0.157,1.485,0.825,2.824,1.541,4.112c0.392,0.134,0.787,0.272,1.187,0.422
		c0.011,1.048,0.239,2.198-0.272,3.175c-1.354,1.974-3.302,3.459-4.713,5.38c-0.541,5.75-0.914,11.597-0.201,17.369
		c0.004,3.72,0.246,7.466-0.287,11.164c-0.187,1.746,0.045,3.504-0.06,5.257c-0.011,1.086-0.966,1.806-1.548,2.63
		c-19.481-32.342-33.141-67.945-42.394-104.477c-4.724,0.787-9.641,0.377-14.138-1.284c-5.944-2.157-11.048-6.313-14.731-11.417
		c-4.914-6.772-7.399-15.175-7.38-23.514c0.045-6.552,1.451-13.235,4.731-18.951c22.932-11.906,45.308-24.928,66.654-39.502
		c14.712-10.078,28.969-20.854,42.327-32.678c19.6-17.19,37.476-36.573,51.595-58.55c4.798-7.436,9.123-15.178,12.902-23.182
		C413.713,370.4,416.045,364.195,418.425,358.02 M496.874,549.77c-10.026,0.683-20.022,1.78-29.976,3.142
		c-1.515,0.216-3.142,0.295-4.44,1.201c-2.175,1.369-3.321,4.171-2.683,6.671c0.578,2.731,3.201,4.869,6.004,4.824
		c1.481-0.101,2.895-0.593,4.339-0.903c12.488-3.123,24.902-6.727,37.666-8.589c7.074-0.963,14.373-1.664,21.413-0.097
		c1.627,0.291,3.082,1.172,4.72,1.407c0.138-1.03,0.407-2.142-0.093-3.112c-0.821-1.597-2.537-2.433-4.142-3.033
		c-3.369-1.175-6.951-1.541-10.488-1.806C511.758,549.008,504.299,549.296,496.874,549.77 M705.041,570.926
		c-1.519,0.795-2.127,2.623-1.742,4.239c2.854-0.653,5.81-0.765,8.724-0.451c5.489,0.578,10.824,2.138,16.014,3.974
		c13.384,4.765,25.861,11.63,38.674,17.686c1.847,1.015,4.198,0.836,5.966-0.272c2.302-1.395,3.481-4.373,2.727-6.962
		c-0.537-2.033-2.168-3.705-4.168-4.328c-11.671-4.164-23.462-8.026-35.458-11.153c-7.198-1.813-14.481-3.515-21.906-3.989
		C710.91,569.575,707.716,569.455,705.041,570.926 M726.76,597.589c-5.69,1.075-10.765,4.746-13.749,9.682
		c-3.436,5.559-4.183,12.652-2.086,18.835c1.981,6.022,6.716,11.115,12.686,13.324c6.044,2.31,13.171,1.429,18.481-2.269
		c5.698-3.851,9.235-10.57,9.399-17.421c0.265-6.724-2.683-13.526-7.906-17.798C738.995,598.077,732.652,596.413,726.76,597.589
		 M831.167,597.854c0.007,0.287,0.03,0.582,0.06,0.884c-0.403,0.063-0.799,0.138-1.183,0.216c0.16,0.425,0.328,0.854,0.504,1.291
		c-2.254,0.034-4.492,0.821-6.735,0.265c-1.522-0.011-3.093-0.332-4.586-0.045c-3.619,3.451-7.089,7.086-10.656,10.597
		c-0.474,0.381-1.112,0.448-1.657,0.657c-0.093,0.392-0.179,0.791-0.254,1.198c-0.78,0.037-1.552,0.086-2.317,0.149
		c-0.082,0.25-0.246,0.742-0.328,0.992c-0.888,0.037-1.772,0.082-2.653,0.142c-0.112,0.414-0.22,0.832-0.313,1.261
		c-0.216,0.078-0.642,0.242-0.854,0.325c-0.093,0.403-0.175,0.813-0.25,1.228c-0.907,0.026-1.802,0.082-2.69,0.164
		c-0.142,0.504-0.265,1.019-0.384,1.537c-0.396,0.134-0.787,0.272-1.164,0.418c-0.086,0.672-0.164,1.347-0.231,2.03
		c-0.205,0-0.619-0.004-0.828-0.004c-0.101-0.463-0.194-0.922-0.276-1.373c-0.451-0.022-0.895-0.034-1.328-0.041
		c-0.056,0.933-0.104,1.873-0.149,2.813c-0.44,0.082-0.877,0.168-1.302,0.261c-0.075,0.81-0.138,1.623-0.19,2.44
		c-0.944,0.078-2.142,0.295-2.332-0.944c-0.142,0.284-0.269,0.575-0.388,0.873c-0.866,0.172-1.918,0.022-2.586,0.69
		c-1.093,1.377-1.366,3.179-1.433,4.892c-0.444,0.082-0.877,0.172-1.302,0.269c-0.067,0.899-0.119,1.802-0.149,2.709
		c-0.425,0.09-0.84,0.187-1.246,0.291c-0.093,0.213-0.272,0.642-0.362,0.858c-0.429,0.078-0.847,0.164-1.257,0.257
		c-0.157,2.283,0.03,4.574-0.116,6.862c-1.343,0.06-2.675,0.231-3.97,0.578c-0.209,2.492,0.037,4.996-0.142,7.492
		c-0.384,0.16-0.72,0.381-1.015,0.653c-0.168,1.187-0.041,2.395,0.034,3.593c0.246,0.052,0.739,0.153,0.985,0.205
		c-0.354,0.19-0.742,0.336-1.022,0.627c-0.086,1.183-0.037,2.377-0.101,3.567c-0.485,0.119-0.948,0.257-1.414,0.392
		c0.466,0.09,0.944,0.183,1.425,0.287c0.019,2.936,0.138,5.884-0.004,8.817c-0.604,1.369-2.25,2.015-2.854,3.399
		c-0.157,2.425-0.004,4.869-0.09,7.309c-0.422-0.332-0.851-0.687-1.41-0.608c-0.056,1.571-0.216,3.168,0.049,4.735
		c0.388,0.272,0.813,0.485,1.246,0.724c0.086,0.485,0.179,0.974,0.284,1.478c0.388,0.093,0.784,0.198,1.19,0.31
		c0.086,0.205,0.254,0.616,0.34,0.821c0.41,0.078,0.828,0.168,1.254,0.265c0,0.209-0.004,0.627-0.004,0.832
		c-0.466,0.093-0.922,0.194-1.369,0.299c-0.149,1.888-0.149,3.791,0.03,5.679c0.437,0.09,0.884,0.183,1.336,0.287
		c0.037,1.291,0.052,2.586,0.146,3.88c1.328,0.078,2.664,0.235,3.963,0.586c0.022,0.802,0.034,1.612,0.03,2.429
		c-0.466-0.451-0.925-0.907-1.373-1.358c-0.067,0.701-0.127,1.407-0.179,2.119c-0.224-0.011-0.668-0.034-0.892-0.045
		c-0.063-0.75-0.164-1.489-0.362-2.201c-0.175,0.836-0.183,1.694-0.09,2.548c0.448,0.071,0.907,0.146,1.369,0.231
		c0.022,0.914,0.067,1.828,0.138,2.746c0.414,0.075,0.84,0.153,1.272,0.239c0.093,0.384,0.194,0.776,0.306,1.179
		c0.209,0.09,0.63,0.272,0.839,0.362c0.075,0.806,0.164,1.616,0.261,2.433c0.261-0.937,0.571-1.862,0.974-2.746
		c0.187,0.373,0.388,0.761,0.59,1.153c0.198-0.522,0.433-1.399,1.157-0.907c0.287,1.306-0.037,2.683,0.291,4.004
		c0.127-0.47,0.254-0.937,0.392-1.395c0.22-0.008,0.664-0.022,0.888-0.034c0.388,1.97-0.638,4.313,0.742,5.996
		c0.022,0.582,0.045,1.175,0.078,1.776c0.28,0.198,0.567,0.403,0.866,0.616c0.839,1.19,1.078,2.619,1.063,4.056
		c0.396,0.108,0.795,0.224,1.205,0.347c0.097,0.213,0.295,0.638,0.392,0.851c0.765,0.067,1.537,0.131,2.321,0.194
		c0.041,0.925,0.104,1.858,0.19,2.795c2.257,0.056,4.526-0.19,6.776,0.209c0.19,0.321,0.388,0.649,0.593,0.989
		c0.698,0.019,1.403,0.048,2.116,0.09c0.082,0.44,0.175,0.892,0.276,1.351c0.798,0.037,1.601,0.086,2.414,0.134
		c-0.004,0.22-0.007,0.664-0.007,0.884c-0.242,0.075-0.724,0.22-0.963,0.295c0.388,0.22,0.798,0.459,1.112,0.817
		c-0.407,0.004-0.802,0.008-1.19,0.019c0.008,0.205,0.019,0.616,0.022,0.817c0.571,0.049,1.149,0.108,1.739,0.172
		c-0.258,0.257-0.504,0.522-0.739,0.798c0.567,0.134,1.138,0.25,1.731,0.369c0.011,0.347-0.097,0.739,0.097,1.078
		c1.146,0.739,2.604,0.642,3.884,0.351c0.746-0.123,1.034-0.914,1.556-1.366c0.78-0.134,1.541,0.287,2.313,0.414
		c0.776,0.69,1.399,1.537,2.119,2.302c0.791,0.127,1.604,0.116,2.418,0.149c0.082,0.437,0.175,0.881,0.276,1.332
		c1.261,0.093,2.526,0.123,3.798,0.168c0.086,0.239,0.257,0.716,0.343,0.955c1.048,0.082,2.116,0.213,3.172,0.063
		c0.276-0.343,0.507-0.716,0.757-1.067c0.231,0.209,0.474,0.425,0.724,0.653c0.261-0.231,0.534-0.455,0.813-0.668
		c6.571,0.049,13.145-0.093,19.719,0.041c-1.97,2.328-4.336,4.283-6.351,6.571c4.31,0.257,8.634-0.108,12.944,0.146
		c0.086,0.47,0.179,0.944,0.284,1.429c0.582-0.052,1.313,0.004,1.511-0.705c-0.399-0.228-0.776-0.429-1.153-0.634
		c0.183-0.093,0.552-0.276,0.739-0.369c0.284-0.91,1.041-1.354,1.963-1.437c-0.25-0.242-0.489-0.474-0.713-0.698
		c0.75-0.332,1.567-0.298,2.377-0.22c-0.224,0.358-0.437,0.728-0.642,1.104c0.828,0.157,1.407-0.291,1.578-1.101
		c0.358-0.007,0.728-0.004,1.108,0.008c0.078,0.25,0.239,0.742,0.321,0.992c2.16,0.022,4.339,0.384,6.492-0.019
		c0.25-0.81,0.339-1.653,0.287-2.492c1.377-0.041,2.761-0.022,4.145-0.093c0.071-0.463,0.157-0.914,0.25-1.358
		c0.575-0.03,1.16-0.056,1.757-0.067c0.179-0.336,0.366-0.664,0.563-0.985c0.5-0.093,1.011-0.179,1.537-0.25
		c0.071-0.44,0.153-0.873,0.243-1.295c0.776-0.172,1.567-0.295,2.369-0.351c0.082-0.403,0.172-0.795,0.272-1.179
		c0.765-0.034,1.541-0.03,2.321,0.007c0.078,0.451,0.168,0.91,0.265,1.381c0.351-0.937,0.787-1.832,1.287-2.69
		c0.448-0.146,0.903-0.291,1.377-0.418c0.097-0.198,0.287-0.601,0.384-0.798c1.205-0.545,2.5-0.31,3.765-0.157
		c0.075-0.257,0.224-0.772,0.298-1.03c0.791,0.578,1.634,1.276,2.701,1.015c0.078-0.455,0.172-0.903,0.272-1.343
		c0.425-0.093,0.862-0.179,1.31-0.254c0.037-0.914,0.078-1.825,0.127-2.731c0.772-0.078,1.552-0.157,2.343-0.235
		c0.101-0.19,0.302-0.578,0.407-0.769c0.366-0.235,0.981-0.213,1.205-0.634c0.108-0.84,0.09-1.679,0.119-2.511
		c0.825-0.048,1.66-0.093,2.504-0.134c0.063-0.944,0.063-1.888-0.015-2.821c-0.377-0.291-0.739-0.578-1.09-0.854
		c0.328-0.201,0.675-0.392,1.03-0.571c-0.295-0.22-0.578-0.433-0.851-0.634c-0.071-1.056-0.093-2.119-0.082-3.168
		c1.276-0.459,2.638-0.519,3.989-0.545c0.03-0.66,0.067-1.313,0.116-1.959c0.295,0.004,0.601,0.019,0.922,0.041
		c0.071-0.549,0.157-1.086,0.25-1.616c0.567-0.09,1.145-0.168,1.735-0.239c-0.142-1.295-0.459-2.578-0.291-3.88
		c0.444-0.09,0.896-0.172,1.358-0.25c0.045-0.784,0.101-1.56,0.16-2.332c0.414-0.101,0.84-0.194,1.276-0.284
		c0.082-0.492,0.175-0.978,0.287-1.455c0.299-0.224,0.601-0.451,0.899-0.687c0.071-1.205,0.015-2.41,0.112-3.608
		c0.963-0.052,1.929-0.112,2.903-0.172c0.049-2.067,0.056-4.138-0.034-6.198c-0.478-0.53-1.534-0.649-1.466-1.519
		c0.343-0.418,0.97-0.384,1.448-0.612c0.369-0.709-0.672-0.884-1.004-1.317c-0.713-0.563-0.228-1.429,0.045-2.075
		c0.295,0.004,0.601,0.015,0.918,0.034c0.067-0.194,0.205-0.578,0.272-0.769c0.422,0.157,0.854,0.325,1.299,0.496
		c0.071-1.53,0.041-3.063,0.101-4.589c0.228-0.075,0.687-0.22,0.918-0.295c-0.72-1.104-1.22-2.332-1.507-3.608
		c0.705-0.966,0.545-2.198,0.563-3.317c0-2.862-0.093-5.724-0.004-8.586c0.179-1.433-0.78-2.694-0.433-4.134
		c0.205-0.78-0.511-1.187-0.978-1.631c-0.086-0.649-0.149-1.287-0.194-1.922c-0.41,0.284-0.791,0.705-1.328,0.526
		c-0.153-0.821-0.149-1.664,0.03-2.47c0.56-0.291,0.955,0.25,1.395,0.537c-0.045-0.399-0.078-0.791-0.101-1.175
		c-0.493-0.198-1.097-0.175-1.451-0.571c-0.011-0.448,0.075-0.866,0.261-1.261c0.392-0.097,0.81-0.09,1.235-0.101
		c0.078-1.235,0.101-2.477-0.03-3.705c-0.455-0.104-0.903-0.202-1.339-0.295c-0.048-0.907-0.097-1.81-0.138-2.709
		c-0.485-0.097-0.959-0.19-1.422-0.276c0.015-1.325,0.75-2.507,0.728-3.828c-0.616-0.093-1.22-0.183-1.81-0.261
		c-0.19-2.657,0.071-5.321-0.127-7.974c-1.395,0.045-2.795-0.067-4.179-0.194c-0.575-1.407-1.44-2.709-1.474-4.276
		c-0.437-0.086-0.862-0.16-1.28-0.231c-0.183-1.306,0.153-2.582,0.265-3.869c-0.593-0.078-1.179-0.149-1.75-0.213
		c-0.071-0.784-0.131-1.563-0.183-2.339c-0.216-0.09-0.649-0.269-0.866-0.358c-0.108-0.414-0.205-0.821-0.291-1.22
		c-0.933-0.082-1.858-0.142-2.776-0.183c-0.056-0.798-0.101-1.589-0.142-2.377c-0.433-0.108-0.858-0.209-1.272-0.306
		c-0.108-0.418-0.209-0.832-0.298-1.239c-0.802-0.052-1.593-0.101-2.381-0.142c-0.048-0.94-0.097-1.877-0.149-2.806
		c-0.429-0.097-0.847-0.187-1.257-0.272c-0.082-0.216-0.25-0.657-0.332-0.877c-0.806-0.075-1.604-0.142-2.392-0.205
		c-0.045-0.94-0.086-1.873-0.127-2.806c-0.933-0.052-1.858-0.104-2.776-0.157c-0.097-0.422-0.183-0.836-0.258-1.243
		c-1.291,0.168-2.556,0.44-3.843,0.56c-0.104-0.563-0.198-1.116-0.287-1.66c-0.466-0.209-1.097-0.153-1.392-0.597
		c0.041-0.623,0.701-0.754,1.134-1.041c-1.254-0.045-2.507-0.06-3.746-0.172c1.172-0.265,2.436-0.328,3.373-1.19
		c-0.261-0.082-0.787-0.25-1.052-0.332c0.336-0.31,0.679-0.616,1.03-0.914c-0.825-0.03-1.646-0.037-2.455-0.019
		c0.168,0.351,0.347,0.705,0.534,1.071c-0.884,0.209-1.354-0.41-1.795-1.045c-0.701-0.172-0.713,1.131-1.418,1.071
		c-0.728,0.037-1.448-0.034-2.157-0.075c-0.183-0.899,0.168-2.604-1.224-2.515c-2.448,0.007-4.921,0.299-7.354-0.127
		c-0.101-0.448-0.194-0.892-0.276-1.328c-2.19-0.175-4.384-0.026-6.571-0.075c-1.828-0.086-3.657,0.354-5.462-0.075
		c-0.101-0.429-0.19-0.847-0.269-1.257c-0.396-0.09-0.776-0.175-1.149-0.254c0.008-0.302,0.022-0.597,0.049-0.884
		c-3.246-0.836-6.615-0.422-9.921-0.504C837.327,597.522,834.163,596.913,831.167,597.854 M640.741,654.325
		c-0.075,2.037,0.414,4.041,0.399,6.082c0.086,3.213-0.448,6.768-2.839,9.134c-2.877,3.101-7.153,4.086-11.07,5.175
		c2.716,1.153,5.709,1.735,8.664,1.798c2.534,0.067,5.283-0.888,6.567-3.216c1.813-3.369,1.25-7.406,0.623-11.018
		C642.428,659.601,641.928,656.825,640.741,654.325z"/>
	<linearGradient id="SVGID_1_" gradientUnits="userSpaceOnUse" x1="655.9352" y1="617.2993" x2="526.0895" y2="-42.3768">
		<stop  offset="0" style="stop-color:#F68C32"/>
		<stop  offset="1" style="stop-color:#FAB924"/>
	</linearGradient>
	<path fill="url(#SVGID_1_)" stroke="#F69030" stroke-width="0.5" d="M1002.589,333.461c-4.895-28.294-13.85-56.039-27.913-81.139
		c-10.227-18.29-23.115-35.088-38.185-49.651c-21.324-20.712-46.801-36.842-73.896-48.897
		c-30.92-13.794-63.882-22.555-97.194-28.245c-10.112-1.687-20.257-3.175-30.447-4.287c-21.462-2.541-43.054-3.862-64.65-4.433
		c1.328-6.821,3.619-13.544,7.448-19.387c3.343-5.145,7.944-9.474,13.32-12.44c5.093-2.769,10.731-4.642,16.503-5.224
		c-1.366-0.355-2.776-0.302-4.164-0.384c-7.421,0.082-14.858,0.877-22.07,2.638c-7.291,1.817-14.417,4.78-20.32,9.503
		c-6.589,5.168-11.209,12.578-13.518,20.585c-36.196-7.477-73.109-12.126-110.115-11.682c-24.141,0.328-48.312,2.836-71.826,8.395
		c-28.2,6.608-55.427,17.753-79.695,33.633c-15.425,10.052-29.641,21.943-42.36,35.252c-18.816,19.607-34.349,42.215-47.002,66.221
		c-8.522,16.126-15.757,32.917-21.98,50.054c-7.854,21.667-14.085,43.898-19.089,66.386c-4.515,20.216-8.018,40.655-10.791,61.18
		c-2.291,17.152-4.082,34.372-5.403,51.625c-1.492,19.186-2.44,38.416-2.933,57.654c0.257-0.138,0.772-0.41,1.03-0.548
		c22.932-11.906,45.308-24.928,66.654-39.502c14.712-10.078,28.969-20.854,42.327-32.678c19.6-17.19,37.476-36.573,51.595-58.55
		c-1.712,0.135-3.414,0.367-5.113,0.622c1.699-0.255,3.401-0.487,5.113-0.622c4.798-7.436,9.123-15.178,12.902-23.182
		c2.895-5.959,5.227-12.164,7.608-18.339c5.492,19.301,11.914,38.39,20.391,56.606c3.063,6.615,6.384,13.115,10.011,19.44
		c11.824,20.656,27.13,39.819,46.95,53.304c11.813,8.112,25.156,14.052,39.148,17.178c-2.992-7.231-5.992-14.466-8.548-21.865
		c-3.324-9.6-6.164-19.387-8.078-29.372c-1.295-6.97-2.295-14.029-2.339-21.13c0.466,0.414,0.94,0.84,1.395,1.28
		c17.484,17.537,36.196,33.883,56.192,48.506c19.178,14.003,39.539,26.447,61.013,36.614c23.943,11.436,49.256,20.07,75.269,25.354
		c-11.604-9.604-22.633-20.04-31.79-32.044c-10.656-13.91-18.787-30.245-20.719-47.83c-0.59-5.373-0.649-10.806-0.104-16.182
		c4.69,4.709,9.25,9.548,14.037,14.16c21.94,21.548,45.633,41.554,71.994,57.513c20.839,12.574,43.577,22.551,67.673,26.719
		c12.055,2.078,24.391,2.657,36.569,1.418c-6.489-13.653-13.1-27.245-19.604-40.89c-1.948-4.086-3.992-8.13-5.839-12.264
		c7.044,3.407,13.865,7.261,20.757,10.966c19.611,10.955,38.901,22.66,56.61,36.532c9.466,7.477,18.533,15.578,26.145,24.969
		c6.406,7.929,11.802,17.037,13.585,27.197c9.656-5.153,18.82-11.272,27.081-18.469c8.75-7.932,16.417-17.365,20.828-28.417
		c2.44-6.048,3.914-12.485,4.317-18.995c0.078-1.914,0.619-3.761,1.019-5.623c2.933-13.309,5.53-26.693,7.72-40.148
		c3.713-22.783,6.276-45.771,7.19-68.844C1008.343,386.892,1007.171,359.922,1002.589,333.461z M294.213,414.372
		c6.223-0.902,12.442-1.839,18.667-2.733C306.655,412.533,300.436,413.47,294.213,414.372z M574.859,480.586
		c1.336-1.358,2.727-2.663,4.034-4.049C577.586,477.923,576.195,479.228,574.859,480.586z"/>
	<path fill="#F58634" stroke="#F58634" stroke-width="0.5" d="M496.874,549.77c7.425-0.474,14.884-0.761,22.32-0.295
		c3.537,0.265,7.119,0.631,10.488,1.806c1.604,0.601,3.321,1.436,4.142,3.033c0.5,0.97,0.231,2.082,0.093,3.112
		c-1.638-0.235-3.093-1.116-4.72-1.407c-7.041-1.567-14.339-0.866-21.413,0.097c-12.764,1.862-25.178,5.466-37.666,8.589
		c-1.444,0.31-2.858,0.802-4.339,0.903c-2.802,0.045-5.425-2.093-6.004-4.824c-0.638-2.5,0.507-5.302,2.683-6.671
		c1.298-0.907,2.925-0.985,4.44-1.201C476.852,551.549,486.848,550.452,496.874,549.77z"/>
	<path fill="#F58634" stroke="#F58634" stroke-width="0.5" d="M705.041,570.926c2.675-1.47,5.869-1.351,8.832-1.257
		c7.425,0.474,14.708,2.175,21.906,3.989c11.996,3.127,23.786,6.989,35.458,11.153c2,0.623,3.63,2.295,4.168,4.328
		c0.754,2.589-0.425,5.567-2.727,6.962c-1.769,1.108-4.119,1.287-5.966,0.272c-12.813-6.056-25.29-12.921-38.674-17.686
		c-5.19-1.836-10.526-3.395-16.014-3.974c-2.914-0.313-5.869-0.201-8.724,0.451C702.914,573.549,703.523,571.72,705.041,570.926z"/>
	<path fill="#393435" stroke="#393435" stroke-width="0.5" d="M473.132,583.168c3.836-4.362,9.556-7.044,15.387-6.97
		c5.977-0.034,11.82,2.832,15.634,7.406c4.56,5.343,6.254,12.914,4.567,19.716c-1.403,5.918-5.392,11.194-10.787,14.033
		c-0.287-0.097-0.854-0.287-1.142-0.381c-0.037-1.187,0.004-2.377-0.127-3.552c-0.381-0.347-0.914-0.455-1.354-0.668
		c-0.082-1.866-0.06-3.735-0.179-5.593c2.235-0.966,4.011-2.963,4.578-5.343c0.877-3.276-0.56-7.037-3.492-8.776
		c-2.944-1.888-7.097-1.172-9.347,1.466c-0.116-0.784-0.224-1.552-0.328-2.321c-1.31-0.041-2.616-0.075-3.918-0.097
		c-0.041-1.343-0.09-2.679-0.134-4.015c-2.694-0.187-5.395,0.093-8.089-0.123c-0.019-1.41-0.067-2.817-0.142-4.22
		C473.878,583.537,473.505,583.347,473.132,583.168z"/>
	<path fill="#3F3837" stroke="#3F3837" stroke-width="0.5" d="M469.308,589.294c0.925-2.235,2.22-4.317,3.824-6.127
		c0.373,0.179,0.746,0.369,1.127,0.563c0.075,1.403,0.123,2.81,0.142,4.22c2.694,0.216,5.395-0.063,8.089,0.123
		c0.045,1.336,0.093,2.672,0.134,4.015c1.302,0.022,2.608,0.056,3.918,0.097c0.104,0.769,0.213,1.537,0.328,2.321
		c-1.601,1.888-2.306,4.507-1.772,6.936c0.556,2.858,2.832,5.351,5.698,5.992c1.433,0.358,2.94,0.164,4.336-0.276
		c0.119,1.858,0.097,3.727,0.179,5.593c0.44,0.213,0.974,0.321,1.354,0.668c0.131,1.175,0.09,2.366,0.127,3.552
		c0.287,0.093,0.854,0.284,1.142,0.381c-0.881,0.451-1.791,0.851-2.72,1.19c-4.004,1.403-8.451,1.511-12.511,0.272
		c-5.392-1.608-9.974-5.552-12.552-10.529C467.091,602.488,466.789,595.343,469.308,589.294z"/>
	<path fill="#FEFCFC" stroke="#FEFCFC" stroke-width="0.5" d="M486.87,594.507c2.25-2.638,6.403-3.354,9.347-1.466
		c2.933,1.739,4.369,5.5,3.492,8.776c-0.567,2.38-2.343,4.377-4.578,5.343c-1.395,0.44-2.903,0.634-4.336,0.276
		c-2.866-0.642-5.142-3.134-5.698-5.992C484.565,599.014,485.27,596.395,486.87,594.507z"/>
	<path fill="#373435" stroke="#373435" stroke-width="0.5" d="M726.76,597.589c5.892-1.175,12.235,0.489,16.824,4.354
		c5.224,4.272,8.171,11.074,7.906,17.798c-0.164,6.85-3.701,13.57-9.399,17.421c-5.31,3.698-12.436,4.578-18.481,2.269
		c-5.97-2.209-10.705-7.302-12.686-13.324c-2.097-6.183-1.351-13.276,2.086-18.835C715.996,602.335,721.07,598.663,726.76,597.589
		 M732.73,613.237c-2.858,0.728-5.074,3.291-5.533,6.183c-0.578,3.063,0.821,6.414,3.477,8.082c2.071,1.351,4.847,1.534,7.071,0.44
		c2.332-1.108,3.974-3.47,4.287-6.018c0.369-2.63-0.646-5.414-2.672-7.138C737.577,613.226,735.018,612.625,732.73,613.237z"/>
	
		<radialGradient id="SVGID_2_" cx="24.6247" cy="302.5903" r="246.7311" gradientTransform="matrix(0.3731 0 0 0.3731 396.2696 551.0793)" gradientUnits="userSpaceOnUse">
		<stop  offset="0" style="stop-color:#F9A883"/>
		<stop  offset="1" style="stop-color:#FBB089"/>
	</radialGradient>
	<path fill="url(#SVGID_2_)" stroke="#FBAD86" stroke-width="0.5" d="M499.665,685.119c-0.552-2.235-0.254-4.53-0.336-6.798
		c0.146-1.067-1.231-1.328-1.425-2.239c-0.735-3.701-0.298-7.485-0.444-11.224c0.104-4.705-0.28-9.432,0.47-14.096
		c0.5-0.597,1.332-1.067,1.373-1.918c0.142-1.869-0.004-3.742,0.015-5.608c-0.097-2.683,0.366-5.373-0.086-8.037
		c-2.228-0.575-4.388-1.709-5.727-3.627c-0.31-1.22-0.328-2.698,0.582-3.675c0.47-0.679,1.228-1.287,1.145-2.194
		c0.03-2.388-0.022-4.776-0.019-7.16c-4.004,1.403-8.451,1.511-12.511,0.272c-5.392-1.608-9.974-5.552-12.552-10.529
		c-3.06-5.798-3.362-12.944-0.843-18.992c-0.425,0.008-0.843,0.022-1.257,0.045c-0.216-0.373-0.433-0.742-0.638-1.101
		c-0.399-0.142-0.798-0.276-1.19-0.403c-0.216-1.407-0.209-2.832-0.123-4.246c-0.843-0.026-1.683-0.045-2.519-0.052
		c-0.567,0.608-1.131,1.213-1.698,1.813c-0.097-0.224-0.287-0.672-0.381-0.896c-0.627,0.254-1.246,0.511-1.869,0.772
		c-0.619-0.776-1.295-1.496-2.03-2.153c-0.06-1.205-0.093-2.41-0.123-3.608c-1.041-0.034-2.086-0.019-3.123,0.045
		c-0.343,0.444-0.683,0.896-1.022,1.351c-2.444,0.157-4.892,0.116-7.336,0.03c0.06-0.746,0.123-1.489,0.19-2.227
		c-0.336-0.265-0.668-0.526-0.992-0.772c0.022-0.463,0.045-0.922,0.075-1.373c0.575-0.325,1.153-0.642,1.742-0.944
		c-0.963-0.205-1.72-0.806-2.515-1.325c-1.466-0.298-3.101-0.138-4.138,1.045c-0.948,0.045-1.895,0.082-2.839,0.119
		c-0.425,0.466-0.843,0.937-1.257,1.41c-4.474,0.045-8.947-0.026-13.421,0.022c-1.485,0.216-2.31-1.407-3.713-1.463
		c-3.112-0.313-6.231,0.052-9.343-0.049c-4.933-0.075-9.873,0.172-14.802-0.134c-0.097,0.511-0.19,1.03-0.276,1.56
		c-3.873,0.295-7.791-0.25-11.63,0.239c-3.071,2.63-5.679,5.783-8.679,8.492c-2.022,0.847-4.448-0.272-6.462,0.601
		c-9.406,9.235-18.645,18.656-28.003,27.947c-5.921,5.895-11.813,11.82-17.719,17.723c-2.522,2.563-5.153,5.015-7.578,7.664
		c0.321,0.317,0.642,0.646,0.966,0.978c0.157,1.485,0.825,2.825,1.541,4.112c0.392,0.134,0.787,0.272,1.187,0.422
		c0.011,1.048,0.239,2.198-0.272,3.175c-1.354,1.974-3.302,3.459-4.713,5.38c-0.541,5.75-0.914,11.597-0.201,17.369
		c0.004,3.72,0.246,7.466-0.287,11.164c-0.187,1.746,0.045,3.504-0.06,5.257c-0.011,1.086-0.966,1.806-1.548,2.63
		c12.69,21.089,27.853,40.719,45.323,58.072c1.313-0.321,2.668-0.276,4.007-0.295c1.007,0.071,1.575-1.06,2.563-1.067
		c1.526-0.067,3.06-0.261,4.589-0.19c1.724,0.571,2.56,2.362,2.444,4.101c0.194,0.108,0.586,0.328,0.784,0.437
		c-1.06,0.873-2.351,1.358-3.548,1.996c2.186,0.914,4.72-0.358,6.813,0.877c0.116-0.504,0.231-1.011,0.358-1.496
		c1.116-0.123,2.235-0.213,3.358-0.269c0.343-0.437,0.683-0.866,1.026-1.291c3.795-0.257,7.6-0.019,11.399-0.101
		c13.701,0.03,27.402-0.026,41.099,0.011c1.034-0.104,1.638,0.832,2.298,1.459c0.951,0.019,1.903,0.03,2.862,0.041
		c0.276,0.354,0.556,0.713,0.843,1.086c2.119,0.045,4.25,0.104,6.369-0.116c-1.228-0.799-2.597-1.351-3.772-2.22
		c0.228-0.112,0.683-0.339,0.91-0.451c-0.09-0.772-0.228-1.548-0.164-2.317c0.866-0.619,1.701-1.28,2.575-1.881
		c1.616,0.097,3.227,0.235,4.851,0.287c0.802-0.041,1.366,0.578,1.951,1.041c0.937,0.052,1.888,0.026,2.821,0.209
		c0.452,0.384,0.817,0.866,1.269,1.269c0.925,0.224,1.892,0.056,2.839,0.037c-0.131-1.552-0.134-3.354,1.332-4.306
		c-0.399-0.862-0.713-1.754-0.944-2.664c1.235-0.101,2.478-0.123,3.72-0.034c0.504,0.478,0.922,1.123,1.597,1.388
		c1.06,0.19,2.149,0.056,3.224,0.019c0.037-0.731,0.078-1.455,0.123-2.172c0.31-0.205,0.623-0.399,0.94-0.586
		c-0.451-0.866-0.81-1.769-1.052-2.701c1.235-0.101,2.477-0.138,3.724-0.086c0.414,0.455,0.728,1.075,1.31,1.358
		c1.034,0.287,2.123,0.127,3.183,0.101c0.037-1.336,0.082-2.668,0.138-3.996c1.321-0.056,2.645-0.097,3.974-0.123
		c0.048-1.339,0.086-2.671,0.119-4c1.328-0.037,2.66-0.071,3.996-0.105c0.034-1.459,0.067-2.914,0.108-4.365
		c1.328-0.045,2.657-0.09,3.989-0.131c0.272-3.175-0.041-6.354,0.082-9.53c0.399,0.418,0.784,0.869,1.254,1.239
		c1.004,0.351,2.101,0.101,3.142,0.082c0.164-3.186-0.097-6.377,0.164-9.556c0.489,0.672,0.981,1.354,1.575,1.951
		c0.104-0.03,0.31-0.082,0.414-0.112c0.653-0.205,1.302-0.429,1.963-0.638c0.157-2.783-0.022-5.571,0.063-8.354
		c-0.015-0.981,0.09-1.981-0.146-2.933c-0.541-1.123-1.239-2.168-1.668-3.339c1.134-1.16,2.612-1.884,3.78-3.004
		c0.69,0.164,1.384,0.343,2.078,0.526C499.445,690.417,499.053,687.731,499.665,685.119z"/>
	<path fill="#FEFEFE" stroke="#FEFEFE" stroke-width="0.5" d="M732.73,613.237c2.287-0.612,4.847-0.011,6.63,1.548
		c2.026,1.724,3.041,4.507,2.672,7.138c-0.313,2.548-1.955,4.91-4.287,6.018c-2.224,1.093-5,0.91-7.071-0.44
		c-2.657-1.668-4.056-5.018-3.477-8.082C727.656,616.528,729.872,613.965,732.73,613.237z"/>
	
		<radialGradient id="SVGID_3_" cx="1196.9865" cy="321.959" r="195.9733" gradientTransform="matrix(0.3731 0 0 0.3731 396.2696 551.0793)" gradientUnits="userSpaceOnUse">
		<stop  offset="0" style="stop-color:#F9A883"/>
		<stop  offset="1" style="stop-color:#FBB089"/>
	</radialGradient>
	<path fill="url(#SVGID_3_)" stroke="#F9A883" stroke-width="0.5" d="M913.72,677.171c0.705-0.966,0.545-2.198,0.563-3.317
		c0-2.862-0.093-5.724-0.004-8.586c0.179-1.433-0.78-2.694-0.433-4.134c0.205-0.78-0.511-1.187-0.978-1.631
		c-0.086-0.649-0.149-1.287-0.194-1.922c-0.41,0.284-0.791,0.705-1.328,0.526c-0.153-0.821-0.149-1.664,0.03-2.47
		c0.56-0.291,0.955,0.25,1.395,0.537c-0.045-0.399-0.078-0.791-0.101-1.175c-0.493-0.198-1.097-0.175-1.451-0.571
		c-0.011-0.448,0.075-0.866,0.261-1.261c0.392-0.097,0.81-0.089,1.235-0.101c0.078-1.235,0.101-2.477-0.03-3.705
		c-0.455-0.105-0.903-0.202-1.339-0.295c-0.048-0.907-0.097-1.81-0.138-2.709c-0.485-0.097-0.959-0.19-1.422-0.276
		c0.015-1.325,0.75-2.507,0.728-3.828c-0.616-0.093-1.22-0.183-1.81-0.261c-0.19-2.657,0.071-5.321-0.127-7.974
		c-1.395,0.045-2.795-0.067-4.179-0.194c-0.575-1.407-1.44-2.709-1.474-4.276c-0.437-0.086-0.862-0.161-1.28-0.231
		c-0.183-1.306,0.153-2.582,0.265-3.869c-0.593-0.078-1.179-0.149-1.75-0.213c-0.071-0.784-0.131-1.563-0.183-2.339
		c-0.216-0.09-0.649-0.269-0.866-0.358c-0.108-0.414-0.205-0.821-0.291-1.22c-0.933-0.082-1.858-0.142-2.776-0.183
		c-0.056-0.798-0.101-1.589-0.142-2.377c-0.433-0.108-0.858-0.209-1.272-0.306c-0.108-0.418-0.209-0.832-0.298-1.239
		c-0.802-0.052-1.593-0.101-2.381-0.142c-0.048-0.94-0.097-1.877-0.149-2.806c-0.429-0.097-0.847-0.187-1.257-0.272
		c-0.082-0.216-0.25-0.657-0.332-0.877c-0.806-0.075-1.604-0.142-2.392-0.205c-0.045-0.94-0.086-1.873-0.127-2.806
		c-0.933-0.052-1.858-0.104-2.776-0.157c-0.097-0.422-0.183-0.836-0.258-1.243c-1.291,0.168-2.556,0.44-3.843,0.56
		c-0.104-0.563-0.198-1.116-0.287-1.66c-0.466-0.209-1.097-0.153-1.392-0.597c0.041-0.623,0.701-0.754,1.134-1.041
		c-1.254-0.045-2.507-0.06-3.746-0.172c1.172-0.265,2.436-0.328,3.373-1.19c-0.261-0.082-0.787-0.25-1.052-0.332
		c0.336-0.31,0.679-0.616,1.03-0.914c-0.825-0.03-1.646-0.037-2.455-0.019c0.168,0.351,0.347,0.705,0.534,1.071
		c-0.884,0.209-1.354-0.41-1.795-1.045c-0.701-0.172-0.713,1.13-1.418,1.071c-0.728,0.037-1.448-0.034-2.157-0.075
		c-0.183-0.899,0.168-2.604-1.224-2.515c-2.448,0.007-4.921,0.299-7.354-0.127c-0.101-0.448-0.194-0.892-0.276-1.328
		c-2.19-0.175-4.384-0.026-6.571-0.075c-1.828-0.086-3.657,0.354-5.462-0.075c-0.101-0.429-0.19-0.847-0.269-1.257
		c-0.396-0.089-0.776-0.175-1.149-0.254c0.008-0.302,0.022-0.597,0.049-0.884c-3.246-0.836-6.615-0.422-9.921-0.504
		c-3.082,0.175-6.246-0.433-9.242,0.507c0.007,0.287,0.03,0.582,0.06,0.884c-0.403,0.063-0.799,0.138-1.183,0.216
		c0.16,0.425,0.328,0.854,0.504,1.291c-2.254,0.034-4.492,0.821-6.735,0.265c-1.522-0.011-3.093-0.332-4.586-0.045
		c-3.619,3.451-7.089,7.086-10.656,10.597c-0.474,0.381-1.112,0.448-1.657,0.657c-0.093,0.392-0.179,0.791-0.254,1.198
		c-0.78,0.037-1.552,0.086-2.317,0.149c-0.082,0.25-0.246,0.743-0.328,0.993c-0.888,0.037-1.772,0.082-2.653,0.142
		c-0.112,0.414-0.22,0.832-0.313,1.261c-0.216,0.078-0.642,0.242-0.854,0.325c-0.093,0.403-0.175,0.813-0.25,1.228
		c-0.907,0.026-1.802,0.082-2.69,0.164c-0.142,0.504-0.265,1.019-0.384,1.537c-0.396,0.134-0.787,0.272-1.164,0.418
		c-0.086,0.672-0.164,1.347-0.231,2.03c-0.205,0-0.619-0.004-0.828-0.004c-0.101-0.463-0.194-0.922-0.276-1.373
		c-0.451-0.022-0.895-0.034-1.328-0.041c-0.056,0.933-0.104,1.873-0.149,2.813c-0.44,0.082-0.877,0.168-1.302,0.261
		c-0.075,0.81-0.138,1.623-0.19,2.44c-0.944,0.078-2.142,0.295-2.332-0.944c-0.142,0.284-0.269,0.575-0.388,0.873
		c-0.866,0.172-1.918,0.022-2.586,0.69c-1.093,1.377-1.366,3.179-1.433,4.892c-0.444,0.082-0.877,0.172-1.302,0.269
		c-0.067,0.899-0.119,1.802-0.149,2.709c-0.425,0.09-0.84,0.187-1.246,0.291c-0.093,0.213-0.272,0.642-0.362,0.858
		c-0.429,0.078-0.847,0.164-1.257,0.257c-0.157,2.283,0.03,4.574-0.116,6.862c-1.343,0.06-2.675,0.231-3.97,0.578
		c-0.209,2.492,0.037,4.996-0.142,7.492c-0.384,0.16-0.72,0.381-1.015,0.653c-0.168,1.186-0.041,2.395,0.034,3.593
		c0.246,0.052,0.739,0.153,0.985,0.205c-0.354,0.19-0.742,0.336-1.022,0.627c-0.086,1.183-0.037,2.377-0.101,3.567
		c-0.485,0.119-0.948,0.257-1.414,0.392c0.466,0.09,0.944,0.183,1.425,0.287c0.019,2.937,0.138,5.884-0.004,8.817
		c-0.604,1.369-2.25,2.015-2.854,3.399c-0.157,2.425-0.004,4.869-0.09,7.309c-0.422-0.332-0.851-0.686-1.41-0.608
		c-0.056,1.571-0.216,3.168,0.049,4.735c0.388,0.272,0.813,0.485,1.246,0.724c0.086,0.485,0.179,0.974,0.284,1.478
		c0.388,0.093,0.784,0.198,1.19,0.31c0.086,0.205,0.254,0.616,0.34,0.821c0.41,0.078,0.828,0.168,1.254,0.265
		c0,0.209-0.004,0.627-0.004,0.832c-0.466,0.093-0.922,0.194-1.369,0.298c-0.149,1.888-0.149,3.791,0.03,5.679
		c0.437,0.089,0.884,0.183,1.336,0.287c0.037,1.291,0.052,2.586,0.146,3.88c1.328,0.078,2.664,0.235,3.963,0.586
		c0.022,0.802,0.034,1.612,0.03,2.429c-0.466-0.451-0.925-0.907-1.373-1.358c-0.067,0.701-0.127,1.407-0.179,2.119
		c-0.224-0.011-0.668-0.034-0.892-0.045c-0.063-0.75-0.164-1.489-0.362-2.201c-0.175,0.836-0.183,1.694-0.09,2.548
		c0.448,0.071,0.907,0.146,1.369,0.231c0.022,0.914,0.067,1.828,0.138,2.746c0.414,0.075,0.84,0.153,1.272,0.239
		c0.093,0.384,0.194,0.776,0.306,1.179c0.209,0.09,0.63,0.272,0.839,0.362c0.075,0.806,0.164,1.616,0.261,2.433
		c0.261-0.937,0.571-1.862,0.974-2.746c0.187,0.373,0.388,0.761,0.59,1.153c0.198-0.522,0.433-1.399,1.157-0.907
		c0.287,1.306-0.037,2.683,0.291,4.004c0.127-0.47,0.254-0.937,0.392-1.395c0.22-0.008,0.664-0.022,0.888-0.034
		c0.388,1.97-0.638,4.313,0.742,5.996c0.022,0.582,0.045,1.175,0.078,1.776c0.28,0.198,0.567,0.403,0.866,0.616
		c0.839,1.19,1.078,2.619,1.063,4.056c0.396,0.108,0.795,0.224,1.205,0.347c0.097,0.213,0.295,0.638,0.392,0.851
		c0.765,0.067,1.537,0.131,2.321,0.194c0.041,0.925,0.104,1.858,0.19,2.795c2.257,0.056,4.526-0.19,6.776,0.209
		c0.19,0.321,0.388,0.649,0.593,0.989c0.698,0.019,1.403,0.049,2.116,0.09c0.082,0.44,0.175,0.892,0.276,1.351
		c0.798,0.037,1.601,0.086,2.414,0.134c-0.004,0.22-0.007,0.664-0.007,0.884c-0.242,0.075-0.724,0.22-0.963,0.295
		c0.388,0.22,0.798,0.459,1.112,0.817c-0.407,0.004-0.802,0.008-1.19,0.019c0.008,0.205,0.019,0.616,0.022,0.817
		c0.571,0.049,1.149,0.108,1.739,0.172c-0.258,0.258-0.504,0.522-0.739,0.798c0.567,0.134,1.138,0.25,1.731,0.37
		c0.011,0.347-0.097,0.739,0.097,1.078c1.146,0.739,2.604,0.642,3.884,0.351c0.746-0.123,1.034-0.914,1.556-1.366
		c0.78-0.134,1.541,0.287,2.313,0.414c0.776,0.69,1.399,1.537,2.119,2.302c0.791,0.127,1.604,0.116,2.418,0.149
		c0.082,0.437,0.175,0.881,0.276,1.332c1.261,0.093,2.526,0.123,3.798,0.168c0.086,0.239,0.257,0.716,0.343,0.955
		c1.048,0.082,2.116,0.213,3.172,0.063c0.276-0.343,0.507-0.716,0.757-1.067c0.231,0.209,0.474,0.425,0.724,0.653
		c0.261-0.231,0.534-0.455,0.813-0.668c6.571,0.049,13.145-0.093,19.719,0.041c-1.97,2.328-4.336,4.283-6.351,6.571
		c4.31,0.257,8.634-0.108,12.944,0.146c0.086,0.47,0.179,0.944,0.284,1.429c0.582-0.052,1.313,0.004,1.511-0.705
		c-0.399-0.228-0.776-0.429-1.153-0.634c0.183-0.093,0.552-0.276,0.739-0.369c0.284-0.911,1.041-1.354,1.963-1.437
		c-0.25-0.242-0.489-0.474-0.713-0.698c0.75-0.332,1.567-0.298,2.377-0.22c-0.224,0.358-0.437,0.727-0.642,1.104
		c0.828,0.157,1.407-0.291,1.578-1.101c0.358-0.008,0.728-0.004,1.108,0.007c0.078,0.25,0.239,0.743,0.321,0.993
		c2.16,0.022,4.339,0.384,6.492-0.019c0.25-0.81,0.339-1.653,0.287-2.492c1.377-0.041,2.761-0.022,4.145-0.093
		c0.071-0.463,0.157-0.914,0.25-1.358c0.575-0.03,1.16-0.056,1.757-0.067c0.179-0.336,0.366-0.664,0.563-0.985
		c0.5-0.093,1.011-0.179,1.537-0.25c0.071-0.44,0.153-0.873,0.243-1.295c0.776-0.172,1.567-0.295,2.369-0.351
		c0.082-0.403,0.172-0.795,0.272-1.179c0.765-0.034,1.541-0.03,2.321,0.007c0.078,0.451,0.168,0.91,0.265,1.381
		c0.351-0.937,0.787-1.832,1.287-2.69c0.448-0.146,0.903-0.291,1.377-0.418c0.097-0.198,0.287-0.601,0.384-0.799
		c1.205-0.545,2.5-0.31,3.765-0.157c0.075-0.257,0.224-0.772,0.298-1.03c0.791,0.578,1.634,1.276,2.701,1.015
		c0.078-0.455,0.172-0.903,0.272-1.343c0.425-0.093,0.862-0.179,1.31-0.254c0.037-0.914,0.078-1.825,0.127-2.731
		c0.772-0.078,1.552-0.157,2.343-0.235c0.101-0.19,0.302-0.578,0.407-0.769c0.366-0.235,0.981-0.213,1.205-0.634
		c0.108-0.84,0.09-1.679,0.119-2.511c0.825-0.049,1.66-0.093,2.504-0.134c0.063-0.944,0.063-1.888-0.015-2.821
		c-0.377-0.291-0.739-0.578-1.09-0.854c0.328-0.201,0.675-0.392,1.03-0.571c-0.295-0.22-0.578-0.433-0.851-0.634
		c-0.071-1.056-0.093-2.119-0.082-3.168c1.276-0.459,2.638-0.519,3.989-0.545c0.03-0.66,0.067-1.313,0.116-1.959
		c0.295,0.004,0.601,0.019,0.922,0.041c0.071-0.549,0.157-1.086,0.25-1.616c0.567-0.089,1.145-0.168,1.735-0.239
		c-0.142-1.295-0.459-2.578-0.291-3.88c0.444-0.09,0.896-0.172,1.358-0.25c0.045-0.784,0.101-1.56,0.16-2.332
		c0.414-0.101,0.84-0.194,1.276-0.283c0.082-0.493,0.175-0.978,0.287-1.455c0.299-0.224,0.601-0.451,0.899-0.687
		c0.071-1.205,0.015-2.41,0.112-3.608c0.963-0.052,1.929-0.112,2.903-0.172c0.049-2.067,0.056-4.138-0.034-6.198
		c-0.478-0.53-1.534-0.649-1.466-1.519c0.343-0.418,0.97-0.384,1.448-0.612c0.369-0.709-0.672-0.884-1.004-1.317
		c-0.713-0.563-0.228-1.429,0.045-2.075c0.295,0.004,0.601,0.015,0.918,0.034c0.067-0.194,0.205-0.578,0.272-0.769
		c0.422,0.157,0.854,0.325,1.299,0.496c0.071-1.53,0.041-3.063,0.101-4.589c0.228-0.075,0.687-0.22,0.918-0.295
		C914.507,679.675,914.007,678.447,913.72,677.171z M808.453,664.64c0.08-0.496,0.185-0.989,0.319-1.479
		C808.638,663.651,808.534,664.144,808.453,664.64z M815.35,651.766c0.326-0.034,0.659-0.049,0.989-0.078
		C816.009,651.717,815.677,651.732,815.35,651.766z M823.522,695.204c0.032,0.914,0.034,1.829,0.041,2.745
		C823.555,697.034,823.553,696.118,823.522,695.204z M833.693,640.509c0.396,0.05,0.798,0.078,1.202,0.101
		C834.49,640.587,834.088,640.559,833.693,640.509z M836.059,701.73c0.18-0.358,0.405-0.685,0.668-0.981
		C836.463,701.046,836.239,701.373,836.059,701.73z M842.877,639.943c0.077,0.121,0.161,0.235,0.253,0.334
		C843.037,640.179,842.954,640.065,842.877,639.943z M852.131,642.075c0.641-0.001,1.283,0.034,1.923,0.112
		C853.414,642.109,852.772,642.075,852.131,642.075z M857.512,644.508c0.239,0.24,0.508,0.452,0.799,0.643
		C858.02,644.96,857.751,644.747,857.512,644.508z M858.309,646.141c-0.001,0.991,0.004,1.982,0.044,2.976
		C858.313,648.123,858.308,647.132,858.309,646.141z"/>
	<path fill="#FA8969" stroke="#FA8969" stroke-width="0.5" d="M640.741,654.325c1.187,2.5,1.687,5.276,2.343,7.955
		c0.627,3.612,1.19,7.649-0.623,11.018c-1.284,2.328-4.033,3.283-6.567,3.216c-2.955-0.063-5.948-0.646-8.664-1.798
		c3.918-1.09,8.194-2.075,11.07-5.175c2.392-2.366,2.925-5.921,2.839-9.134C641.156,658.366,640.667,656.363,640.741,654.325z"/>
	<path fill="#C13511" stroke="#C13511" stroke-width="0.5" d="M492.814,710.928c0.104-0.03,0.31-0.082,0.414-0.112
		c30.525,14.029,62.83,24.335,96.011,29.749c29.559,4.873,59.748,5.843,89.575,3.06c24.413-2.239,48.547-7.078,72.12-13.776
		c-1.724,1.194-3.563,2.205-5.354,3.284c-17.406,10.242-35.64,19.163-54.718,25.842c-23.436,8.22-48.312,12.943-73.206,11.929
		c-15.078-0.582-30.073-3.269-44.401-7.992c-24.145-7.892-46.14-21.469-65.315-37.995
		C502.694,720.472,497.781,715.666,492.814,710.928z"/>
	<path fill="#969ECD" stroke="#969ECD" stroke-width="0.5" d="M680.512,826.834c13.708,1.425,27.361,3.395,41.028,5.171
		c5.809,35.622,10.559,71.456,12.869,107.492c1.552,24.592,2.022,49.289,0.354,73.889c-67.568,1.791-135.14,3.593-202.712,5.377
		c-2.306-18.253-3.429-36.64-3.791-55.031c-0.799-42.495,2.108-84.971,6.608-127.208c0.425-0.049,0.854-0.104,1.287-0.168
		c13.074-2.582,26.167-5.059,39.297-7.336c0.522,4.619,1.231,9.227,2.384,13.738c2.53,10.19,7.291,20.182,15.29,27.208
		c5.451,4.843,12.223,8.063,19.298,9.727c5.78,1.399,11.757,1.802,17.693,1.724c0.134,0.179,0.403,0.541,0.537,0.72
		c10.067-0.556,20.335-2.922,28.764-8.675c5.698-3.832,10.317-9.164,13.537-15.212C678.08,848.62,680.031,837.635,680.512,826.834z"
		/>
	<path fill="#B37D71" stroke="#B37D71" stroke-width="0.5" d="M721.541,832.005c14.671-1.489,29.32-3.298,43.998-4.709
		c0.481,2.679,0.578,5.455,1.459,8.052c-0.049,0.03-0.142,0.09-0.19,0.123c0.142,1.205,0.358,2.399,0.545,3.608
		c5.436,36.241,9.82,72.717,10.862,109.376c0.507,21.331,0.007,42.815-3.791,63.863c-1.075,5.332-2.164,10.701-3.933,15.854
		c-1.351,1.298-3.138,2.034-4.768,2.925c-6.369-3.959-15.082-3.541-21.029,1.037c-3.903-1.295-7.526-3.272-11-5.436
		c0.299-4.444,0.813-8.869,1.071-13.313c1.668-24.6,1.198-49.297-0.354-73.889C732.1,903.461,727.35,867.627,721.541,832.005z"/>
	<path fill="#B37D71" stroke="#B37D71" stroke-width="0.5" d="M489.497,846.269c0.373-3.985,0.772-7.966,1.172-11.947
		c11.287,0.578,22.57,1.172,33.857,1.754c2.966,0.108,5.929,0.425,8.903,0.328c0.478,0.041,0.948,0.067,1.44,0.119
		c-4.5,42.237-7.406,84.713-6.608,127.208c0.362,18.391,1.485,36.778,3.791,55.031c0.563,4.242,1.101,8.488,1.873,12.701
		c-3.261,2.582-6.914,4.657-10.753,6.242c-6.205-4.235-14.936-4.149-21.07,0.179c-1.686-0.884-3.724-1.422-5.015-2.851
		c-1.936-4.948-3.362-10.082-4.679-15.223c-4.556-18.716-6.358-37.98-7.25-57.181C483.565,923.8,485.945,884.932,489.497,846.269z"
		/>
	<path fill="#969ECD" stroke="#969ECD" stroke-width="0.5" d="M767.352,839.079c52.442,8.85,104.582,20.178,155.263,36.443
		c-2.123,5.63-4.227,11.268-6.336,16.906c-10.388,27.738-20.772,55.475-31.159,83.213c-0.228,0.578-0.451,1.164-0.664,1.765
		c-21.07-6.873-42.133-13.772-63.203-20.648c-3.645-1.134-7.224-2.727-11.112-2.754c-3.436-0.179-7.772-0.041-9.865,3.168
		c-1.877,3.421-0.53,7.511,0.761,10.903c0.989,1.892,0.795,4.06,0.985,6.123c0.817,12.444,1.649,24.891,2.459,37.338
		c-10.022,0.257-20.04,0.548-30.059,0.784c3.798-21.048,4.298-42.532,3.791-63.863C777.173,911.797,772.789,875.321,767.352,839.079
		z"/>
	<path fill="#969ECD" stroke="#969ECD" stroke-width="0.5" d="M336.578,891.521c49.673-19.107,101.067-33.435,152.919-45.252
		c-3.552,38.663-5.933,77.531-4.339,116.361c0.892,19.201,2.694,38.465,7.25,57.181c-8.78,0.31-17.574,0.347-26.346,0.798
		c-1.291-0.075-2.582-0.037-3.869-0.045c0.194-1.769,0.119-3.541,0.149-5.309c0.097-10.94,0.187-21.876,0.284-32.816
		c0.06-1.578-0.19-3.213,0.377-4.72c1.022-2.963,1.903-6.134,1.362-9.283c-0.332-1.992-1.731-3.75-3.63-4.444
		c-3.145-1.179-6.593-0.724-9.817-0.168c-2.063,0.313-3.948,1.25-5.88,1.981c-21.522,8.414-43.017,16.884-64.553,25.245
		c-0.25-0.586-0.496-1.145-0.746-1.713c-11.958-27.092-23.913-54.188-35.864-81.284
		C341.436,902.543,338.999,897.036,336.578,891.521z"/>
	<path fill="#F8BA8B" stroke="#F8BA8B" stroke-width="0.5" d="M885.12,975.641c10.388-27.738,20.772-55.476,31.159-83.213
		c4.955,1.019,9.862,2.265,14.746,3.586c15.69,4.28,31.226,9.108,46.759,13.925c14.626,4.507,29.182,9.25,43.909,13.429
		c7.306,1.966,14.764,4.108,22.413,3.664c6.817-0.313,13.507-2.41,19.384-5.858c11.246-6.615,19.82-17.014,31.514-22.947
		c5.097-2.548,11.048-4.436,16.731-2.843c3.597,0.992,6.69,3.574,8.376,6.903c1.802,3.522,2.28,7.552,2.336,11.462
		c0.063,5.082-0.851,10.1-1.578,15.111c-0.38,3.101-0.907,6.313-0.075,9.391c0.526,2.011,2.063,3.739,4.074,4.366
		c3.213,1.037,6.634,0.257,9.847-0.388c5.089-1.045,10.283-2.485,15.522-1.683c5.492,0.944,9.847,5.201,12.339,10.011
		c1.38,2.765,2.53,5.936,1.821,9.059c-0.713,2.862-3.257,4.768-5.794,5.974c-4.716,2.194-9.888,3.093-14.951,4.082
		c-6.552,1.265-13.193,2.063-19.678,3.649c-1.515,0.47-3.351,0.78-4.298,2.179c-0.463,1.325,0.948,2.284,1.817,3.052
		c3.455,2.548,7.227,4.638,10.731,7.127c5.765,4.041,11.477,8.391,15.761,14.048c3.201,4.298,5.518,9.675,4.742,15.13
		c-1.034,7.522-8.134,13.593-15.72,13.507c-6.287-0.104-12.111-2.854-17.697-5.474c-7.03-3.421-13.984-7.048-21.35-9.709
		c-1.974-0.657-3.992-1.403-6.097-1.354c-0.892-0.026-1.839,0.563-1.858,1.526c-0.086,1.545,0.593,2.992,1.175,4.392
		c2,4.429,4.406,8.66,6.41,13.089c2.78,6.056,4.847,12.734,4.022,19.469c-0.675,5.373-2.698,10.847-6.731,14.608
		c-2.5,2.313-5.992,3.425-9.369,3.168c-4.007-0.261-7.75-2.175-10.705-4.825c-3.862-3.444-6.802-7.765-9.511-12.134
		c-3.877-6.317-7.339-12.873-10.682-19.481c-0.88-1.619-1.556-3.403-2.836-4.75c-0.739-0.821-1.563,0.187-1.858,0.869
		c-1.153,2.347-1.88,4.869-2.858,7.291c-1.963,5.164-4.694,10.13-8.623,14.063c-2.22,2.227-4.981,4.101-8.145,4.567
		c-3.048,0.507-6.429-0.38-8.526-2.724c-1.951-2.175-2.716-5.108-3.138-7.925c-0.604-4.384-0.545-8.824-0.481-13.235
		c0.19-9.335,0.627-18.663,1.239-27.977c0.108-2.795,0.388-5.772-0.851-8.373c-0.925-1.951-2.959-3.026-4.933-3.627
		c-3.858-1.168-7.906-1.451-11.888-1.888c-13.033-1.146-25.924-3.444-38.909-4.985c-17.231-2.116-34.588-2.728-51.894-3.847
		c-5.877-0.366-11.701-1.254-17.574-1.627C890.519,977.32,887.717,976.768,885.12,975.641z"/>
	<path fill="#F8BA8B" stroke="#F8BA8B" stroke-width="0.5" d="M309.836,919.3c11.25-4.018,22.495-8.123,34.036-11.246
		c11.951,27.096,23.906,54.192,35.864,81.284c-4.474,2.388-9.656,2.302-14.518,3.246c-10.19,1.825-20.503,2.776-30.775,3.989
		c-11.806,1.362-23.589,2.944-35.267,5.138c-11.123,2.071-22.16,4.608-33.353,6.298c-4.254,0.701-8.567,1.231-12.694,2.541
		c-2.131,0.705-4.403,1.776-5.429,3.907c-1.16,2.451-0.843,5.265-0.601,7.88c1.328,11.029,2.545,22.081,3.22,33.17
		c0.172,4.582,0.463,9.324-1.007,13.746c-0.895,2.78-3.112,5.149-5.97,5.932c-3.847,1.19-8.037-0.16-11.104-2.593
		c-5.712-4.414-9.294-10.914-12.014-17.469c-0.84-1.75-1.388-3.709-2.709-5.168c-0.653-0.694-1.392,0.164-1.724,0.728
		c-1.134,1.862-1.873,3.933-2.78,5.91c-3.727,8.354-7.496,16.742-12.395,24.488c-3.28,5.03-7.571,10.026-13.608,11.626
		c-4.578,1.354-9.832,0.007-13.037-3.571c-5.425-5.922-7.41-14.518-6.104-22.339c1.336-8.41,5.589-15.91,8.612-23.764
		c0.493-1.485,1.172-3.078,0.787-4.653c-0.407-1.205-1.922-1.187-2.94-0.981c-2.731,0.534-5.272,1.742-7.794,2.888
		c-7.828,3.634-15.096,8.328-22.794,12.216c-4.959,2.377-10.447,4.657-16.059,3.675c-4.339-0.757-8.268-3.433-10.682-7.104
		c-2.414-3.552-3.022-8.123-2.022-12.261c1.313-5.675,4.847-10.526,8.832-14.649c4.313-4.448,9.197-8.291,14.19-11.936
		c2.265-1.713,4.72-3.209,6.731-5.227c0.72-0.683,1.481-1.989,0.5-2.783c-1.459-1.127-3.373-1.347-5.123-1.716
		c-9.373-1.526-18.91-1.896-28.223-3.817c-3.332-0.769-6.795-1.69-9.496-3.895c-1.761-1.414-2.802-3.645-2.735-5.903
		c0.09-3.328,1.347-6.53,3.052-9.347c2.369-3.854,6.041-7.164,10.57-8.1c4.936-0.985,9.959,0.03,14.854,0.757
		c3.175,0.463,6.489,1.071,9.638,0.16c1.955-0.537,3.645-2.007,4.28-3.951c0.97-2.847,0.41-5.91-0.067-8.794
		c-1.187-6.239-2.866-12.455-2.765-18.854c0.045-4.175,0.772-8.586,3.362-11.985c2.231-2.996,5.768-4.88,9.459-5.313
		c4.481-0.541,8.977,0.642,13.093,2.343c9.944,4.16,17.928,11.608,26.835,17.481c4.474,3.018,9.321,5.559,14.533,7.037
		c6.94,2,14.395,2.097,21.41,0.403c6.873-1.645,13.518-4.097,20.171-6.455C268.707,934.729,289.177,926.763,309.836,919.3z"/>
	<path fill="#182947" stroke="#182947" stroke-width="0.5" d="M774.423,1012.319c10.018-0.235,20.037-0.526,30.059-0.784
		c4.5-0.119,9.003-0.246,13.503-0.354c5.216,143.509,10.44,287.015,15.656,430.521c0.369,8.597,0.504,17.208,1.056,25.798
		c-8.966,1.463-17.955,2.798-26.932,4.209c-5.545,0.813-11.063,1.795-16.619,2.507c-0.552-0.258-1.183-0.194-1.567,0.295
		c-0.254,0.026-0.757,0.078-1.007,0.104c-0.552-0.28-1.194-0.231-1.575,0.269c-0.175,0.015-0.526,0.037-0.701,0.048
		c-0.552-0.231-1.175-0.164-1.548,0.325c-0.257,0.022-0.772,0.071-1.03,0.097c-0.556-0.272-1.198-0.22-1.59,0.276
		c-0.168,0.015-0.5,0.048-0.668,0.067c-0.556-0.25-1.19-0.194-1.571,0.306c-1.093,0.19-2.198,0.336-3.295,0.452
		c-0.549-0.272-1.183-0.205-1.545,0.306c-0.261,0.019-0.784,0.056-1.045,0.075c-0.556-0.265-1.194-0.209-1.571,0.295
		c-0.179,0.015-0.537,0.045-0.72,0.056c-0.649-0.272-1.369-0.194-1.854,0.328c-1.839,0.358-3.69,0.657-5.556,0.828
		c-0.548-0.284-1.198-0.231-1.578,0.28c-2.705,0.463-5.41,0.933-8.138,1.216c-0.548-0.291-1.201-0.235-1.567,0.287
		c-0.254,0.026-0.757,0.075-1.011,0.097c-0.552-0.291-1.209-0.246-1.589,0.276c-0.168,0.011-0.507,0.037-0.679,0.049
		c-0.552-0.257-1.194-0.194-1.556,0.325c-0.258,0.026-0.776,0.075-1.034,0.101c-0.552-0.298-1.216-0.25-1.593,0.276
		c-1.071,0.235-2.164,0.377-3.25,0.481c-0.545-0.317-1.213-0.265-1.589,0.261c-0.168,0.015-0.5,0.045-0.668,0.06
		c-0.56-0.261-1.205-0.209-1.586,0.302c-1.086,0.216-2.183,0.366-3.276,0.474c-0.504-0.25-1.377-0.373-1.5,0.362
		c-0.272-0.007-0.817-0.022-1.089-0.03c-0.56-0.243-1.198-0.187-1.571,0.325c-0.179,0.019-0.541,0.056-0.72,0.075
		c-0.642-0.306-1.38-0.257-1.866,0.287c-0.175,0.026-0.522,0.082-0.694,0.108c-0.552-0.299-1.213-0.254-1.586,0.28
		c-0.172,0.007-0.511,0.026-0.683,0.034c-0.563-0.239-1.201-0.172-1.567,0.347c-0.25,0.019-0.754,0.056-1.007,0.075
		c-0.556-0.28-1.209-0.231-1.601,0.284c-0.172,0.015-0.515,0.052-0.687,0.067c-0.649-0.295-1.388-0.231-1.884,0.298
		c-0.168,0.026-0.507,0.078-0.675,0.104c-0.552-0.295-1.209-0.246-1.593,0.276c-0.175,0.015-0.53,0.052-0.705,0.071
		c-0.646-0.299-1.384-0.243-1.873,0.295c-0.172,0.026-0.511,0.078-0.683,0.101c-0.56-0.284-1.224-0.242-1.612,0.284
		c-1.071,0.228-2.16,0.377-3.246,0.478c-0.545-0.313-1.209-0.261-1.578,0.272c-0.175,0.015-0.53,0.045-0.709,0.06
		c-0.649-0.291-1.399-0.243-1.873,0.325c-0.985,0.209-1.981,0.339-2.974,0.452c-0.642-0.328-1.403-0.272-1.877,0.295
		c-0.985,0.202-1.985,0.336-2.977,0.452c-0.646-0.328-1.41-0.287-1.888,0.291c-0.978,0.205-1.97,0.339-2.955,0.455
		c-0.645-0.328-1.395-0.276-1.892,0.265c-0.175,0.022-0.519,0.067-0.694,0.093c-0.549-0.28-1.198-0.228-1.571,0.291
		c-1.082,0.209-2.179,0.362-3.272,0.47c-0.545-0.299-1.205-0.25-1.575,0.284c-0.172,0.004-0.515,0.011-0.687,0.015
		c-0.552-0.22-1.168-0.146-1.545,0.336c-2.142,0.332-4.283,0.634-6.421,0.974c-0.146-0.131-0.444-0.396-0.593-0.526
		c-9.936-38.61-19.704-77.262-29.704-115.854c-0.343,2.183-0.806,4.347-1.224,6.522c-7.149,36.569-14.32,73.131-21.454,109.701
		c-0.209,0.284-0.403,0.593-0.586,0.929c-11.208-1.045-22.413-2.108-33.618-3.175c-7.843-0.806-15.708-1.388-23.533-2.328
		c-0.653-0.545-1.511-0.56-2.239-0.187c-20.671-1.851-41.323-3.933-61.986-5.88c-13.541-1.328-27.089-2.56-40.618-3.951
		c-0.108-11.313-0.451-22.622-0.653-33.935c-2.948-140.868-5.903-281.739-8.85-422.611c3.791-0.104,7.578-0.205,11.369-0.306
		c1.963-0.052,3.944,0.284,5.892-0.063c8.772-0.451,17.566-0.489,26.346-0.798c1.317,5.142,2.742,10.276,4.679,15.223
		c1.291,1.429,3.328,1.966,5.015,2.851c-5.5,3.687-8.809,10.298-8.593,16.902c0.112,6.72,3.955,13.268,9.862,16.518
		c5.5,3.134,12.597,3.164,18.137,0.097c5.817-3.093,9.768-9.294,10.227-15.85c0.619-6.918-2.746-14.037-8.563-17.846
		c3.839-1.586,7.492-3.66,10.753-6.242c-0.772-4.213-1.31-8.459-1.873-12.701c67.572-1.784,135.144-3.586,202.712-5.377
		c-0.257,4.444-0.772,8.869-1.071,13.313c3.474,2.164,7.097,4.142,11,5.436c-5.354,3.974-8.313,10.847-7.623,17.469
		c0.567,6.698,4.791,12.97,10.858,15.906c5.716,2.903,12.917,2.563,18.328-0.88c5.832-3.586,9.354-10.474,9.022-17.29
		c-0.213-6.56-3.888-12.903-9.556-16.242c1.631-0.892,3.418-1.627,4.768-2.925C772.259,1023.02,773.348,1017.651,774.423,1012.319z"
		/>
	<path fill="#FEFEFE" stroke="#FEFEFE" stroke-width="0.5" d="M744.693,1032.135c5.948-4.578,14.66-4.996,21.029-1.037
		c5.668,3.339,9.343,9.682,9.556,16.242c0.332,6.817-3.19,13.705-9.022,17.29c-5.41,3.444-12.611,3.783-18.328,0.88
		c-6.067-2.936-10.291-9.209-10.858-15.906C736.38,1042.982,739.338,1036.109,744.693,1032.135z"/>
	<path fill="#FEFEFE" stroke="#FEFEFE" stroke-width="0.5" d="M502.101,1037.885c6.134-4.328,14.865-4.414,21.07-0.179
		c5.817,3.81,9.182,10.929,8.563,17.846c-0.459,6.556-4.41,12.757-10.227,15.85c-5.541,3.067-12.638,3.037-18.137-0.097
		c-5.907-3.25-9.75-9.798-9.862-16.518C493.292,1048.183,496.601,1041.572,502.101,1037.885z"/>
	<path fill="#39779C" stroke="#39779C" stroke-width="0.5" d="M834.697,1467.499c3.623-0.922,7.231-1.888,10.854-2.817
		c2.597,19.91,5.186,39.823,7.794,59.733c-13.992,2.287-27.988,4.548-41.98,6.832c-31.159,5.063-62.318,10.138-93.478,15.201
		c-11.888,1.933-23.775,3.869-35.667,5.798c-7.53-19.425-15.074-38.842-22.6-58.263c4.597-0.563,9.19-1.157,13.791-1.694
		l-0.146-0.541c0.149,0.131,0.448,0.396,0.593,0.526c2.138-0.339,4.28-0.642,6.421-0.974c0.53,0.205,1.175,0.149,1.545-0.336
		c0.172-0.004,0.515-0.011,0.687-0.015c0.534,0.16,1.145,0.112,1.575-0.284c1.093-0.108,2.19-0.261,3.272-0.47
		c0.534,0.172,1.153,0.127,1.571-0.291c0.175-0.026,0.519-0.071,0.694-0.093c0.634,0.205,1.332,0.131,1.892-0.265
		c0.985-0.116,1.978-0.25,2.955-0.455c0.638,0.175,1.328,0.097,1.888-0.291c0.992-0.116,1.992-0.25,2.977-0.452
		c0.634,0.175,1.328,0.108,1.877-0.295c0.993-0.112,1.989-0.243,2.974-0.452c0.634,0.172,1.343,0.116,1.873-0.325
		c0.179-0.015,0.534-0.045,0.709-0.06c0.53,0.157,1.138,0.108,1.578-0.272c1.086-0.101,2.175-0.25,3.246-0.478
		c0.545,0.157,1.164,0.116,1.612-0.284c0.172-0.022,0.511-0.075,0.683-0.101c0.631,0.201,1.339,0.146,1.873-0.295
		c0.175-0.019,0.53-0.056,0.705-0.071c0.537,0.168,1.153,0.12,1.593-0.276c0.168-0.026,0.507-0.078,0.675-0.104
		c0.634,0.202,1.351,0.149,1.884-0.298c0.172-0.015,0.515-0.052,0.687-0.067c0.541,0.172,1.164,0.123,1.601-0.284
		c0.254-0.019,0.757-0.056,1.007-0.075c0.541,0.164,1.168,0.104,1.567-0.347c0.172-0.007,0.511-0.026,0.683-0.034
		c0.534,0.157,1.145,0.116,1.586-0.28c0.172-0.026,0.519-0.082,0.694-0.108c0.627,0.202,1.332,0.149,1.866-0.287
		c0.179-0.019,0.541-0.056,0.72-0.075c0.537,0.175,1.172,0.127,1.571-0.325c0.272,0.008,0.817,0.022,1.089,0.03
		c0.522,0.075,1.06-0.06,1.5-0.362c1.093-0.108,2.19-0.257,3.276-0.474c0.537,0.175,1.164,0.123,1.586-0.302
		c0.168-0.015,0.5-0.045,0.668-0.06c0.534,0.161,1.142,0.116,1.589-0.261c1.086-0.104,2.179-0.246,3.25-0.481
		c0.537,0.157,1.149,0.116,1.593-0.276c0.257-0.026,0.776-0.075,1.034-0.101c0.534,0.172,1.157,0.116,1.556-0.325
		c0.172-0.011,0.511-0.037,0.679-0.049c0.534,0.164,1.153,0.127,1.589-0.276c0.254-0.022,0.757-0.071,1.011-0.097
		c0.53,0.168,1.145,0.123,1.567-0.287c2.728-0.284,5.433-0.754,8.138-1.216c0.53,0.179,1.149,0.134,1.578-0.28
		c1.866-0.172,3.716-0.47,5.556-0.828c0.627,0.198,1.354,0.161,1.854-0.328c0.183-0.011,0.541-0.041,0.72-0.056
		c0.53,0.187,1.157,0.142,1.571-0.295c0.261-0.019,0.784-0.056,1.045-0.075c0.526,0.187,1.142,0.127,1.545-0.306
		c1.097-0.116,2.201-0.261,3.295-0.452c0.534,0.194,1.164,0.138,1.571-0.306c0.168-0.019,0.5-0.052,0.668-0.067
		c0.534,0.19,1.164,0.149,1.59-0.276c0.257-0.026,0.772-0.075,1.03-0.097c0.526,0.202,1.168,0.149,1.548-0.325
		c0.175-0.011,0.526-0.034,0.701-0.048c0.526,0.194,1.149,0.153,1.575-0.269c0.25-0.026,0.754-0.078,1.007-0.104
		c0.53,0.198,1.164,0.153,1.567-0.295c5.556-0.713,11.074-1.694,16.619-2.507C816.742,1470.298,825.731,1468.962,834.697,1467.499z"
		/>
	<path opacity="0.82" fill="#284662" stroke="#284662" stroke-width="0.5" enable-background="new    " d="M789.579,1474.51
		c0.384-0.489,1.015-0.552,1.567-0.295C790.743,1474.663,790.109,1474.708,789.579,1474.51z"/>
	<path opacity="0.82" fill="#253F5C" stroke="#253F5C" stroke-width="0.5" enable-background="new    " d="M786.997,1474.883
		c0.381-0.5,1.022-0.549,1.575-0.269C788.146,1475.036,787.523,1475.077,786.997,1474.883z"/>
	<path opacity="0.82" fill="#264561" stroke="#264561" stroke-width="0.5" enable-background="new    " d="M784.747,1475.256
		c0.373-0.489,0.996-0.556,1.548-0.325C785.915,1475.406,785.273,1475.458,784.747,1475.256z"/>
	<path fill="#39779C" stroke="#39779C" stroke-width="0.5" d="M447.245,1475.32c3.686,0.724,7.373,1.474,11.059,2.205
		c13.529,1.392,27.077,2.623,40.618,3.951c20.663,1.948,41.316,4.03,61.986,5.88c0.683,0.384,1.485,0.399,2.239,0.187
		c7.824,0.94,15.69,1.522,23.533,2.328c11.205,1.067,22.41,2.13,33.618,3.175c0.183-0.336,0.377-0.646,0.586-0.929
		c0,0.231,0,0.69-0.004,0.922c4.56,0.269,9.112,0.589,13.667,0.888c-6.399,19.817-12.824,39.629-19.223,59.453
		c-11.985-1.239-23.965-2.5-35.946-3.742c-31.398-3.276-62.792-6.548-94.187-9.821c-14.1-1.474-28.2-2.94-42.301-4.414
		C444.339,1515.374,445.797,1495.345,447.245,1475.32z"/>
	<path opacity="0.82" fill="#243F5B" stroke="#243F5B" stroke-width="0.5" enable-background="new    " d="M782.128,1475.63
		c0.392-0.496,1.034-0.548,1.59-0.276C783.292,1475.779,782.661,1475.82,782.128,1475.63z"/>
	<path opacity="0.82" fill="#254560" stroke="#254560" stroke-width="0.5" enable-background="new    " d="M779.889,1476.003
		c0.381-0.5,1.015-0.556,1.571-0.306C781.053,1476.141,780.423,1476.197,779.889,1476.003z"/>
	<path opacity="0.82" fill="#254560" stroke="#254560" stroke-width="0.5" enable-background="new    " d="M775.05,1476.76
		c0.362-0.511,0.996-0.578,1.545-0.306C776.191,1476.887,775.576,1476.947,775.05,1476.76z"/>
	<path opacity="0.81" fill="#233F5A" stroke="#233F5A" stroke-width="0.5" enable-background="new    " d="M772.434,1477.129
		c0.377-0.504,1.015-0.56,1.571-0.295C773.591,1477.271,772.964,1477.316,772.434,1477.129z"/>
	<path opacity="0.83" fill="#23405C" stroke="#23405C" stroke-width="0.5" enable-background="new    " d="M769.86,1477.514
		c0.485-0.522,1.205-0.601,1.854-0.328C771.214,1477.674,770.486,1477.712,769.86,1477.514z"/>
	<path opacity="0.81" fill="#223E59" stroke="#223E59" stroke-width="0.5" enable-background="new    " d="M762.726,1478.622
		c0.381-0.511,1.03-0.563,1.578-0.28C763.875,1478.756,763.255,1478.801,762.726,1478.622z"/>
	<path opacity="0.8" fill="#213D58" stroke="#213D58" stroke-width="0.5" enable-background="new    " d="M753.021,1480.126
		c0.366-0.522,1.019-0.578,1.567-0.287C754.166,1480.249,753.551,1480.293,753.021,1480.126z"/>
	<path opacity="0.8" fill="#1F3852" stroke="#1F3852" stroke-width="0.5" enable-background="new    " d="M750.42,1480.499
		c0.381-0.522,1.037-0.567,1.589-0.276C751.573,1480.626,750.954,1480.663,750.42,1480.499z"/>
	<path opacity="0.8" fill="#213E59" stroke="#213E59" stroke-width="0.5" enable-background="new    " d="M748.185,1480.872
		c0.362-0.519,1.004-0.582,1.556-0.325C749.342,1480.988,748.719,1481.043,748.185,1480.872z"/>
	<path opacity="0.8" fill="#1F3852" stroke="#1F3852" stroke-width="0.5" enable-background="new    " d="M745.558,1481.249
		c0.377-0.526,1.041-0.575,1.593-0.276C746.707,1481.364,746.096,1481.406,745.558,1481.249z"/>
	<path opacity="0.8" fill="#1E3852" stroke="#1E3852" stroke-width="0.5" enable-background="new    " d="M740.719,1481.991
		c0.377-0.526,1.045-0.578,1.589-0.261C741.861,1482.107,741.252,1482.152,740.719,1481.991z"/>
	<path opacity="0.8" fill="#203E58" stroke="#203E58" stroke-width="0.5" enable-background="new    " d="M738.465,1482.353
		c0.381-0.511,1.026-0.563,1.586-0.302C739.629,1482.476,739.003,1482.528,738.465,1482.353z"/>
	<path opacity="0.8" fill="#203D59" stroke="#203D59" stroke-width="0.5" enable-background="new    " d="M733.689,1483.189
		c0.123-0.735,0.996-0.612,1.5-0.362C734.749,1483.129,734.212,1483.264,733.689,1483.189z"/>
	<path opacity="0.8" fill="#1E3953" stroke="#1E3953" stroke-width="0.5" enable-background="new    " d="M731.029,1483.484
		c0.373-0.511,1.011-0.567,1.571-0.325C732.201,1483.611,731.566,1483.659,731.029,1483.484z"/>
	<path opacity="0.82" fill="#1F3B55" stroke="#1F3B55" stroke-width="0.5" enable-background="new    " d="M728.443,1483.846
		c0.485-0.545,1.224-0.593,1.866-0.287C729.775,1483.995,729.07,1484.047,728.443,1483.846z"/>
	<path opacity="0.79" fill="#1E3852" stroke="#1E3852" stroke-width="0.5" enable-background="new    " d="M726.164,1484.234
		c0.373-0.534,1.034-0.578,1.586-0.28C727.309,1484.349,726.697,1484.39,726.164,1484.234z"/>
	<path opacity="0.8" fill="#203F59" stroke="#203F59" stroke-width="0.5" enable-background="new    " d="M723.914,1484.614
		c0.366-0.519,1.004-0.586,1.567-0.347C725.081,1484.719,724.455,1484.778,723.914,1484.614z"/>
	<path opacity="0.79" fill="#1E3853" stroke="#1E3853" stroke-width="0.5" enable-background="new    " d="M721.305,1484.972
		c0.392-0.515,1.045-0.563,1.601-0.284C722.47,1485.096,721.846,1485.144,721.305,1484.972z"/>
	<path opacity="0.81" fill="#1F3B56" stroke="#1F3B56" stroke-width="0.5" enable-background="new    " d="M718.735,1485.338
		c0.496-0.53,1.235-0.593,1.884-0.298C720.085,1485.487,719.369,1485.54,718.735,1485.338z"/>
	<path opacity="0.8" fill="#1E3953" stroke="#1E3953" stroke-width="0.5" enable-background="new    " d="M716.466,1485.719
		c0.384-0.522,1.041-0.571,1.593-0.276C717.619,1485.838,717.003,1485.887,716.466,1485.719z"/>
	<path opacity="0.82" fill="#1F3B56" stroke="#1F3B56" stroke-width="0.5" enable-background="new    " d="M713.888,1486.084
		c0.489-0.537,1.228-0.593,1.873-0.295C715.227,1486.23,714.518,1486.286,713.888,1486.084z"/>
	<path opacity="0.8" fill="#1E3953" stroke="#1E3953" stroke-width="0.5" enable-background="new    " d="M711.593,1486.469
		c0.388-0.526,1.052-0.567,1.612-0.284C712.757,1486.584,712.138,1486.625,711.593,1486.469z"/>
	<path opacity="0.79" fill="#1E3953" stroke="#1E3953" stroke-width="0.5" enable-background="new    " d="M706.769,1487.219
		c0.369-0.534,1.034-0.586,1.578-0.272C707.907,1487.327,707.299,1487.375,706.769,1487.219z"/>
	<path opacity="0.79" fill="#1D3751" stroke="#1D3751" stroke-width="0.5" enable-background="new    " d="M560.909,1487.357
		c0.728-0.373,1.586-0.358,2.239,0.187C562.394,1487.756,561.591,1487.741,560.909,1487.357z"/>
	<path opacity="0.81" fill="#203C57" stroke="#203C57" stroke-width="0.5" enable-background="new    " d="M704.187,1487.603
		c0.474-0.567,1.224-0.616,1.873-0.325C705.53,1487.719,704.821,1487.775,704.187,1487.603z"/>
	<path opacity="0.82" fill="#203D58" stroke="#203D58" stroke-width="0.5" enable-background="new    " d="M699.336,1488.349
		c0.474-0.567,1.235-0.623,1.877-0.295C700.664,1488.457,699.97,1488.525,699.336,1488.349z"/>
	<path opacity="0.82" fill="#213D58" stroke="#213D58" stroke-width="0.5" enable-background="new    " d="M694.471,1489.092
		c0.478-0.578,1.243-0.619,1.888-0.291C695.799,1489.189,695.109,1489.267,694.471,1489.092z"/>
	<path opacity="0.82" fill="#213E59" stroke="#213E59" stroke-width="0.5" enable-background="new    " d="M689.624,1489.812
		c0.496-0.541,1.246-0.593,1.892-0.265C690.956,1489.942,690.258,1490.017,689.624,1489.812z"/>
	<path opacity="0.8" fill="#203C58" stroke="#203C58" stroke-width="0.5" enable-background="new    " d="M687.359,1490.196
		c0.373-0.519,1.022-0.571,1.571-0.291C688.512,1490.323,687.893,1490.368,687.359,1490.196z"/>
	<path opacity="0.81" fill="#223E59" stroke="#223E59" stroke-width="0.5" enable-background="new    " d="M682.512,1490.95
		c0.369-0.534,1.03-0.582,1.575-0.284C683.658,1491.062,683.046,1491.11,682.512,1490.95z"/>
	<path opacity="0.82" fill="#254661" stroke="#254661" stroke-width="0.5" enable-background="new    " d="M680.281,1491.301
		c0.377-0.481,0.992-0.556,1.545-0.336C681.456,1491.45,680.811,1491.506,680.281,1491.301z"/>
	<path fill="#F8BA8B" stroke="#F8BA8B" stroke-width="0.5" d="M717.888,1546.448c31.159-5.063,62.318-10.138,93.478-15.201
		c2.645,22.559,5.433,45.106,8.858,67.561c1.205,7.477,2.325,14.996,4.276,22.331c0.817,2.746,1.608,5.675,3.597,7.847
		c1.5,1.631,3.843,1.899,5.94,2.019c6.358,0.276,12.854-0.675,19.096,0.97c3.324,0.884,6.724,2.589,8.466,5.698
		c1.69,3.022,1.127,6.835-0.634,9.705c-2.575,4.228-6.839,7.071-11.153,9.306c-6.959,3.489-14.518,5.548-22.033,7.459
		c-15.264,3.69-30.797,6.201-46.394,7.977c-9.242,0.981-18.566,1.69-27.857,1.011c-3.104-0.265-6.354-0.638-9.044-2.328
		c-2.694-1.72-4.44-4.545-5.727-7.395c-2.134-4.895-3.373-10.119-4.582-15.298c-2.048-9.141-3.645-18.372-5.224-27.6
		c-2.869-17.014-5.485-34.07-8.037-51.129C719.817,1561.746,718.503,1554.134,717.888,1546.448z"/>
	<path fill="#F8BA8B" stroke="#F8BA8B" stroke-width="0.5" d="M485.191,1539.817c31.394,3.272,62.789,6.545,94.187,9.821
		c-0.075,4.709-0.492,9.406-0.896,14.1c-2.448,26.641-4.787,53.304-8.261,79.837c-1.075,7.406-2.097,14.869-4.287,22.048
		c-1.157,3.571-2.772,7.261-5.847,9.589c-2.981,2.172-6.765,2.634-10.32,3.108c-11.667,1.317-23.447,0.698-35.129-0.127
		c-10.88-0.832-21.738-2.033-32.514-3.765c-7.086-1.168-14.149-2.541-21.036-4.589c-5.504-1.705-11.018-3.892-15.481-7.63
		c-2.668-2.265-4.962-5.339-5.246-8.929c-0.272-2.701,0.91-5.414,2.922-7.194c2.608-2.373,6.059-3.556,9.466-4.198
		c5.142-0.944,10.395-0.657,15.574-1.187c1.795-0.235,3.731-0.507,5.145-1.739c1.537-1.362,2.283-3.351,2.888-5.254
		c1.194-4.063,1.787-8.265,2.358-12.447c1.138-8.828,1.914-17.697,2.668-26.563C482.897,1576.42,484.109,1558.123,485.191,1539.817z
		"/>
</g>
</svg>
